<?xml version="1.0" encoding="UTF-8" standalone="no"?>
<svg
   width="388.8pt"
   height="115pt"
   version="1.1"
   id="svg15"
   sodipodi:docname="Python_logo_and_wordmark.svg"
   inkscape:version="1.3.2 (091e20e, 2023-11-25, custom)"
   xmlns:inkscape="http://www.inkscape.org/namespaces/inkscape"
   xmlns:sodipodi="http://sodipodi.sourceforge.net/DTD/sodipodi-0.dtd"
   xmlns="http://www.w3.org/2000/svg"
   xmlns:svg="http://www.w3.org/2000/svg"
   xmlns:rdf="http://www.w3.org/1999/02/22-rdf-syntax-ns#"
   xmlns:dc="http://purl.org/dc/elements/1.1/">
  <sodipodi:namedview
     id="namedview15"
     pagecolor="#ffffff"
     bordercolor="#000000"
     borderopacity="0.25"
     inkscape:showpageshadow="2"
     inkscape:pageopacity="0.0"
     inkscape:pagecheckerboard="0"
     inkscape:deskcolor="#d1d1d1"
     inkscape:document-units="pt"
     inkscape:zoom="1.8383488"
     inkscape:cx="378.05665"
     inkscape:cy="36.173766"
     inkscape:window-width="2560"
     inkscape:window-height="1369"
     inkscape:window-x="2552"
     inkscape:window-y="-8"
     inkscape:window-maximized="1"
     inkscape:current-layer="svg15" />
  <title
     id="title1">Python programming language logo</title>
  <metadata
     id="metadata1">
    <rdf:RDF>
      <dc:format>image/svg+xml</dc:format>
      <dc:type
         rdf:resource="http://purl.org/dc/dcmitype/StillImage" />
      <dc:title />
    </rdf:RDF>
  </metadata>
  <defs
     id="defs6">
    <linearGradient
       id="vlpc"
       x1="151"
       x2="112"
       y1="192.4"
       y2="137.3"
       gradientTransform="matrix(.5625 0 0 .568 -9.4 -5.305)"
       gradientUnits="userSpaceOnUse">
      <stop
         style="stop-color:#ffd43b"
         offset="0"
         id="stop1" />
      <stop
         style="stop-color:#ffe873"
         offset="1"
         id="stop2" />
    </linearGradient>
    <linearGradient
       id="vlpb"
       x1="26.65"
       x2="135.7"
       y1="20.6"
       y2="114.4"
       gradientTransform="matrix(.5625 0 0 .568 -9.4 -5.305)"
       gradientUnits="userSpaceOnUse">
      <stop
         style="stop-color:#5a9fd4"
         offset="0"
         id="stop3" />
      <stop
         style="stop-color:#306998"
         offset="1"
         id="stop4" />
    </linearGradient>
    <radialGradient
       id="vlpa"
       cx="61.52"
       cy="132.3"
       r="29.04"
       gradientTransform="matrix(2.383e-8 -.2964 1.437 4.684e-7 -128.5 150.5)"
       gradientUnits="userSpaceOnUse">
      <stop
         style="stop-color:#b8b8b8;stop-opacity:.498"
         offset="0"
         id="stop5" />
      <stop
         style="stop-color:#7f7f7f;stop-opacity:0"
         offset="1"
         id="stop6" />
    </radialGradient>
  </defs>
  <path
     d="m184.6 61.93c0-14.56-4.152-22.04-12.46-22.45-3.304-0.156-6.531 0.3704-9.669 1.589-2.505 0.8967-4.191 1.784-5.078 2.68v34.76c5.312 3.334 10.03 4.883 14.14 4.64 8.704-0.5751 13.06-7.642 13.06-21.22zm10.24 0.6043c0 7.398-1.735 13.54-5.224 18.42-3.889 5.527-9.279 8.373-16.17 8.529-5.195 0.1657-10.55-1.462-16.05-4.874v31.59l-8.909-3.178v-70.12c1.462-1.793 3.343-3.334 5.624-4.64 5.302-3.09 11.75-4.679 19.33-4.757l0.1267 0.1267c6.93-0.08773 12.27 2.758 16.02 8.529 3.499 5.293 5.254 12.08 5.254 20.37z"
     style="fill:#646464"
     id="path6" />
  <path
     d="m249.3 83.27c0 9.923-0.9942 16.79-2.983 20.62-1.998 3.821-5.8 6.872-11.41 9.143-4.552 1.793-9.474 2.768-14.76 2.934l-1.472-5.614c5.371-0.731 9.153-1.462 11.35-2.193 4.318-1.462 7.281-3.704 8.909-6.706 1.306-2.447 1.949-7.115 1.949-14.03v-2.32c-6.092 2.768-12.48 4.143-19.15 4.143-4.386 0-8.256-1.374-11.59-4.143-3.743-3.012-5.614-6.833-5.614-11.46v-37.08l8.909-3.051v37.32c0 3.987 1.287 7.057 3.86 9.211 2.573 2.154 5.907 3.187 9.991 3.109 4.084-0.08773 8.46-1.667 13.11-4.757v-43.54h8.909v48.41z"
     style="fill:#646464"
     id="path7" />
  <path
     d="m284.1 89c-1.062 0.08772-2.037 0.1267-2.934 0.1267-5.039 0-8.967-1.199-11.77-3.606-2.797-2.408-4.201-5.731-4.201-9.971v-35.09h-6.102v-5.605h6.102v-14.88l8.899-3.168v18.05h10.01v5.605h-10.01v34.85c0 3.343 0.8967 5.712 2.69 7.096 1.54 1.14 3.987 1.793 7.32 1.959v4.64z"
     style="fill:#646464"
     id="path8" />
  <path
     d="m338 88.27h-8.909v-34.39c0-3.499-0.8188-6.511-2.447-9.026-1.881-2.846-4.493-4.269-7.846-4.269-4.084 0-9.192 2.154-15.32 6.462v41.22h-8.909v-82.2l8.909-2.807v37.44c5.692-4.143 11.91-6.219 18.67-6.219 4.718 0 8.538 1.589 11.46 4.757 2.934 3.168 4.396 7.115 4.396 11.83v37.19z"
     style="fill:#646464"
     id="path9" />
  <path
     d="m385.4 60.53c0-5.595-1.062-10.21-3.178-13.87-2.515-4.454-6.423-6.803-11.71-7.047-9.767 0.5653-14.64 7.564-14.64 20.98 0 6.15 1.014 11.29 3.061 15.41 2.612 5.254 6.531 7.846 11.76 7.759 9.806-0.07798 14.71-7.817 14.71-23.23zm9.757 0.05848c0 7.963-2.037 14.59-6.102 19.88-4.474 5.926-10.65 8.899-18.54 8.899-7.817 0-13.91-2.973-18.31-8.899-3.987-5.293-5.975-11.92-5.975-19.88 0-7.486 2.154-13.78 6.462-18.91 4.552-5.439 10.54-8.168 17.93-8.168 7.398 0 13.42 2.729 18.06 8.168 4.308 5.127 6.462 11.42 6.462 18.91z"
     style="fill:#646464"
     id="path10" />
  <path
     d="m446.2 88.27h-8.909v-36.34c0-3.987-1.199-7.096-3.597-9.338-2.398-2.232-5.595-3.314-9.581-3.226-4.23 0.07798-8.256 1.462-12.08 4.143v44.76h-8.909v-45.86c5.127-3.733 9.845-6.17 14.15-7.31 4.065-1.062 7.651-1.589 10.74-1.589 2.115 0 4.104 0.2047 5.975 0.6141 3.499 0.809 6.345 2.31 8.538 4.513 2.447 2.437 3.665 5.361 3.665 8.782v40.85z"
     style="fill:#646464"
     id="path11" />
  <path
     d="m60.51 6.398c-4.584 0.0213-8.961 0.4122-12.81 1.094-11.35 2.005-13.41 6.2-13.41 13.94v10.22h26.81v3.406h-26.81-10.06c-7.792 0-14.62 4.684-16.75 13.59-2.462 10.21-2.571 16.59 0 27.25 1.906 7.938 6.458 13.59 14.25 13.59h9.219v-12.25c0-8.85 7.657-16.66 16.75-16.66h26.78c7.455 0 13.41-6.138 13.41-13.62v-25.53c0-7.266-6.13-12.72-13.41-13.94-4.606-0.7667-9.385-1.115-13.97-1.094zm-14.5 8.219c2.77 0 5.031 2.299 5.031 5.125-2e-6 2.816-2.262 5.094-5.031 5.094-2.779-1e-6 -5.031-2.277-5.031-5.094-1e-6 -2.826 2.252-5.125 5.031-5.125z"
     style="fill:url(#vlpb)"
     id="path12" />
  <path
     d="m91.23 35.05v11.91c0 9.231-7.826 17-16.75 17h-26.78c-7.336 0-13.41 6.278-13.41 13.62v25.53c0 7.266 6.319 11.54 13.41 13.62 8.487 2.496 16.63 2.947 26.78 0 6.75-1.954 13.41-5.888 13.41-13.62v-10.22h-26.78v-3.406h26.78 13.41c7.792 0 10.7-5.435 13.41-13.59 2.799-8.399 2.68-16.48 0-27.25-1.926-7.757-5.604-13.59-13.41-13.59h-10.06zm-15.06 64.66c2.779 3e-6 5.031 2.277 5.031 5.094-2e-6 2.826-2.252 5.125-5.031 5.125-2.77 0-5.031-2.299-5.031-5.125 2e-6 -2.816 2.262-5.094 5.031-5.094z"
     style="fill:url(#vlpc)"
     id="path13" />
  <path
     d="m463.6 26.91h1.562v-9.796h3.7v-1.168h-8.962v1.168h3.7v9.796m6.647 0h1.334v-8.947l2.896 8.946h1.486l3.018-8.916v8.917h1.456v-10.96h-1.926l-3.298 9.393-2.813-9.393h-2.153v10.96"
     style="fill:#646464"
     id="path14" />
  <path
     transform="matrix(.7341 0 0 .8095 16.25 27.01)"
     d="m110.5 132.3a48.95 8.607 0 1 1-97.9 0 48.95 8.607 0 1 1 97.9 0z"
     style="fill:url(#vlpa);opacity:.4438"
     id="path15" />
  <path
     style="fill:#000000;stroke-width:0.271983"
     d="m 152.71857,114.38392 -4.07975,-1.44624 -0.069,-34.903779 -0.069,-34.903777 1.29295,-1.327617 c 5.08115,-5.217359 14.94872,-8.452089 24.37895,-7.991761 3.75295,0.183197 5.48172,0.590408 8.19413,1.930131 5.74959,2.839857 10.15888,9.920659 11.68536,18.765315 0.62416,3.616468 0.81307,8.830797 0.43946,12.129693 -1.47992,13.067136 -8.67597,21.457603 -19.35016,22.561942 -4.74379,0.490785 -9.02134,-0.401733 -14.32486,-2.988908 -1.8289,-0.892178 -3.3894,-1.622143 -3.46779,-1.622143 -0.0784,0 -0.14251,7.037565 -0.14251,15.639034 0,8.60147 -0.0918,15.63123 -0.20399,15.6217 -0.11219,-0.01 -2.03987,-0.66815 -4.28373,-1.46359 z m 21.48667,-31.527324 c 7.15427,-1.913933 10.47988,-8.710649 10.46528,-21.388392 -0.0132,-11.482007 -2.80032,-18.627357 -8.23186,-21.104254 -1.45964,-0.665625 -2.10473,-0.784996 -4.7423,-0.877539 -1.67907,-0.05891 -3.8794,0.03683 -4.88963,0.212748 -2.31257,0.402717 -6.61404,1.986056 -8.31049,3.059029 l -1.2939,0.818364 0.07,17.546247 0.07,17.546248 1.76789,0.994803 c 4.35292,2.449416 7.82393,3.526515 11.4233,3.544806 1.27152,0.0065 2.92382,-0.151965 3.67177,-0.35206 z"
     id="path16" />
  <path
     style="fill:#000000;stroke-width:0.271983"
     d="m 220.18444,115.55618 c -0.29834,-0.85926 -1.25869,-4.92895 -1.18137,-5.00627 0.0463,-0.0463 1.66709,-0.34152 3.60167,-0.65596 7.25853,-1.17977 11.06675,-2.62527 13.95076,-5.29536 2.63638,-2.44082 3.58856,-4.784764 4.13592,-10.18124 0.373,-3.677381 0.37633,-9.286608 0.006,-9.286608 -0.1541,0 -0.98901,0.298344 -1.85536,0.662984 -6.48384,2.729009 -16.69566,4.052011 -21.527,2.788948 -4.7348,-1.23782 -9.19415,-4.72366 -11.15187,-8.71732 -1.59374,-3.251178 -1.66843,-4.451103 -1.57535,-25.309002 l 0.08,-17.927172 4.27376,-1.42774 4.27375,-1.42774 0.0799,19.898878 c 0.0793,19.759609 0.0841,19.911251 0.68545,21.666769 1.15906,3.383792 3.82537,5.900066 7.55011,7.125266 1.60116,0.52668 2.46607,0.624876 5.43966,0.617576 3.28952,-0.0081 3.72099,-0.0722 6.19494,-0.920717 1.46253,-0.501624 3.6656,-1.488931 4.89569,-2.194018 l 2.23655,-1.281976 0.0696,-21.799822 0.0696,-21.799823 h 4.36383 4.36383 l -0.0976,28.762224 c -0.0877,25.83554 -0.14607,29.052816 -0.57376,31.618047 -0.89186,5.349386 -1.77476,7.887296 -3.61685,10.396726 -3.11055,4.23741 -10.81241,8.1269 -18.44658,9.31565 -4.43478,0.69055 -6.10119,0.79134 -6.24481,0.3777 z"
     id="path17" />
  <path
     style="fill:#000000;stroke-width:0.271983"
     d="m 276.19894,88.491326 c -5.13877,-1.087294 -8.88362,-4.196423 -10.2042,-8.471945 -0.51573,-1.669751 -0.53913,-2.570674 -0.53913,-20.755694 V 40.253514 h -3.12781 -3.12781 v -2.574933 -2.574932 l 3.05981,-0.0769 3.05981,-0.0769 0.136,-7.479539 0.13599,-7.479538 3.94375,-1.413353 c 2.16907,-0.777344 4.03555,-1.419905 4.14775,-1.427912 0.11219,-0.008 0.20398,4.024392 0.20398,8.960887 v 8.975446 h 5.03169 5.03169 v 2.583841 2.58384 h -5.04376 -5.04377 l 0.0838,18.970828 c 0.0765,17.33291 0.125,19.074889 0.56138,20.176076 1.08016,2.725767 2.94142,4.090236 6.34743,4.653225 3.45279,0.570724 3.09495,0.256907 3.09495,2.71418 v 2.170684 l -2.92382,-0.02218 c -1.6081,-0.01219 -3.78056,-0.203448 -4.8277,-0.425006 z"
     id="path18" />
  <path
     style="fill:#000000;stroke-width:0.271983"
     d="M 294.82979,47.116651 V 6.1107472 l 3.87576,-1.1870158 c 2.13167,-0.6528586 4.02875,-1.2453205 4.21574,-1.3165819 0.26994,-0.1028737 0.33998,3.7146437 0.33998,18.5303825 0,10.262973 0.0515,18.659948 0.11445,18.659948 0.063,0 1.1205,-0.623975 2.35013,-1.386614 8.66959,-5.37705 19.04527,-6.319839 25.1268,-2.283149 3.18595,2.11471 5.7175,5.91873 6.54832,9.839819 0.32131,1.51641 0.39358,5.426829 0.39745,21.504235 l 0.005,19.650787 h -4.35173 -4.35174 V 69.548852 c 0,-15.735694 -0.0632,-18.821398 -0.41385,-20.194753 -0.94653,-3.70749 -3.11383,-6.730736 -5.76884,-8.047164 -1.12893,-0.55975 -1.68422,-0.642362 -4.28866,-0.638037 -2.42363,0.004 -3.32756,0.124135 -4.7597,0.632464 -2.35464,0.835755 -5.61612,2.472985 -8.36349,4.198376 l -2.24386,1.409183 v 20.606818 20.606819 h -4.21574 -4.21574 z"
     id="path19" />
  <path
     style="fill:#000000;stroke-width:0.271983"
     d="m 365.16646,88.662586 c -9.41392,-1.983432 -16.23991,-9.994018 -18.26628,-21.436242 -0.56519,-3.191462 -0.55721,-9.821233 0.0154,-12.788793 1.89632,-9.82769 8.38409,-17.418011 17.01248,-19.903632 2.58774,-0.745464 7.86589,-1.015402 10.75171,-0.549869 5.86294,0.945793 10.49627,3.672796 14.31455,8.424995 2.88411,3.589552 4.68695,7.698604 5.55784,12.667553 0.65353,3.728721 0.37651,10.749699 -0.57412,14.551102 -1.72824,6.91093 -6.20889,13.450956 -11.23261,16.395272 -4.99612,2.928147 -11.54338,3.911266 -17.57898,2.639614 z m 9.50125,-5.31125 c 7.11323,-1.840747 10.72632,-9.311277 10.73088,-22.187484 0.003,-8.570158 -1.66726,-13.911654 -5.56184,-17.786346 -4.26763,-4.245841 -10.55068,-5.004866 -16.27752,-1.966409 -2.10802,1.11844 -4.04555,3.300239 -5.33757,6.010491 -1.91544,4.017955 -2.6275,8.563552 -2.37082,15.134549 0.4431,11.343396 4.32013,18.741059 10.91851,20.833328 1.53885,0.487952 5.94767,0.466666 7.89836,-0.03813 z"
     id="path20" />
  <path
     style="fill:#000000;stroke-width:0.271983"
     d="m 411.91236,65.819935 c 0,-12.341238 0.0334,-17.389926 0.0741,-11.219307 0.0408,6.170619 0.0408,16.267995 0,22.438614 -0.0408,6.170619 -0.0741,1.121931 -0.0741,-11.219307 z"
     id="path21" />
  <path
     style="fill:#000000;stroke-width:0.271983"
     d="M 403.35109,65.30825 V 42.493942 l 0.88394,-0.66962 c 1.82836,-1.385049 6.47654,-4.023752 8.9482,-5.079759 2.72485,-1.164185 6.77053,-2.247781 10.34194,-2.769991 3.1432,-0.459596 8.81263,-0.180594 11.37153,0.559609 5.60229,1.620558 9.51427,5.243209 10.73883,9.944582 0.35717,1.371289 0.41692,4.613301 0.41692,22.62224 v 21.021555 h -4.35173 -4.35173 V 68.868894 c 0,-16.420612 -0.0614,-19.489195 -0.41693,-20.85435 -1.23261,-4.732314 -4.85381,-7.841741 -10.02522,-8.60839 -4.15674,-0.616227 -9.63114,0.61502 -13.42333,3.019039 l -1.69884,1.076967 0.002,17.618487 c 10e-4,9.690169 8.5e-4,19.72976 -0.001,22.3102 l -0.003,4.691711 h -4.21574 -4.21574 z"
     id="path22" />
  <path
     style="fill:#000000;stroke-width:0.0240401"
     d="m 463.61421,21.996733 v -4.904189 h -1.85109 -1.85109 V 16.5276 15.962657 h 4.47147 4.47147 v 0.564943 0.564944 h -1.8511 -1.85109 v 4.904189 4.90419 h -0.76928 -0.76929 z"
     id="path24" />
  <path
     style="fill:#000000;stroke-width:0.0240401"
     d="m 470.24929,21.431542 v -5.46938 l 1.072,0.0063 1.072,0.0063 1.40369,4.685376 c 0.77203,2.576957 1.4081,4.68979 1.41349,4.695184 0.005,0.0054 0.0314,-0.053 0.0578,-0.129769 0.0772,-0.224553 3.22168,-9.17444 3.23966,-9.220741 0.0152,-0.03908 0.0837,-0.04207 0.96334,-0.04207 h 0.94702 v 5.469133 5.469133 h -0.70919 -0.70918 v -4.463454 c 0,-2.454899 -0.008,-4.455598 -0.018,-4.445996 -0.01,0.0096 -0.6949,2.015451 -1.52217,4.457444 l -1.50415,4.439986 -0.7334,0.0064 -0.73341,0.0064 -1.43735,-4.441758 c -0.79054,-2.442967 -1.44659,-4.457986 -1.45789,-4.477819 -0.0114,-0.02005 -0.0209,1.951683 -0.0213,4.441417 l -7.3e-4,4.477477 h -0.6611 -0.66111 z"
     id="path25" />
</svg>
